<?xml version="1.0" standalone="no"?>
<!DOCTYPE svg PUBLIC "-//W3C//DTD SVG 20010904//EN"
 "http://www.w3.org/TR/2001/REC-SVG-20010904/DTD/svg10.dtd">
<svg version="1.0" xmlns="http://www.w3.org/2000/svg"
 width="310.000000pt" height="200.000000pt" viewBox="0 0 310.000000 200.000000"
 preserveAspectRatio="xMidYMid meet">
<metadata>
Created by potrace 1.12, written by Peter Selinger 2001-2015
</metadata>
<g transform="translate(0.000000,200.000000) scale(0.100000,-0.100000)"
fill="#000000" stroke="none">
<path d="M61 1958 c498 -353 858 -699 976 -935 33 -67 39 -73 82 -87 293 -96
810 -111 1436 -41 224 25 534 71 543 80 12 11 -18 19 -265 70 -882 182 -1103
249 -1768 532 -438 187 -1009 413 -1042 413 -4 0 13 -14 38 -32z"/>
<path d="M3010 879 c-133 -33 -561 -117 -705 -138 -536 -78 -964 -65 -1143 34
-23 13 -42 21 -42 19 0 -14 87 -153 139 -221 105 -138 274 -286 377 -329 34
-14 43 -13 166 21 266 74 593 197 800 301 180 90 424 249 483 314 21 23 22 23
-75 -1z"/>
<path d="M3049 734 c-13 -14 -69 -63 -124 -107 -313 -253 -688 -431 -1014
-481 l-74 -12 80 -37 c318 -145 618 -123 779 56 79 88 396 588 382 602 -3 3
-15 -7 -29 -21z"/>
</g>
</svg>
